<svg clip-rule="evenodd" fill-rule="evenodd" stroke-linejoin="round" stroke-miterlimit="2" viewBox="0 0 560 400" xmlns="http://www.w3.org/2000/svg"><g fill-rule="nonzero" transform="matrix(4.10546 0 0 4.10546 52.2941 155)"><path d="m108.202 16.703c.067.765.679 1.739 1.74 1.739h.62c.24-.001.437-.198.438-.438v-13.645h-.003c-.012-.23-.204-.413-.435-.414h-1.922c-.231.001-.423.184-.435.414h-.003v1.109c-1.178-1.452-3.035-2.055-4.897-2.055-4.205.001-7.665 3.462-7.665 7.667v.007c0 4.205 3.46 7.666 7.665 7.668 1.862 0 3.892-.723 4.897-2.054zm-4.89-.633c-2.692 0-4.874-2.232-4.874-4.986s2.182-4.986 4.874-4.986c2.693 0 4.875 2.232 4.875 4.986s-2.182 4.986-4.875 4.986zm-10.102 1.102v-7.06c0-3.981-2.51-6.666-6.51-6.666-1.91 0-3.476 1.105-4.029 2.055-.12-.743-.513-1.523-1.735-1.523h-.622c-.24.001-.437.198-.438.438v13.646h.003c.012.23.203.414.435.414h1.923c.029 0 .058-.004.086-.009.013-.002.024-.008.037-.011l.043-.013c.017-.008.032-.017.048-.026l.024-.013c.019-.013.036-.027.053-.043l.01-.007c.08-.077.128-.181.134-.292h.002v-8.06c-.001-2.123 1.745-3.87 3.868-3.871 2.122.001 3.868 1.748 3.868 3.87l.001 6.738v-.002l.002.018v1.307h.002c.013.23.203.414.435.414h1.923c.029 0 .058-.003.086-.009.011-.002.022-.007.033-.01.016-.004.032-.008.047-.014.016-.007.03-.016.045-.024l.027-.015c.018-.012.034-.026.05-.04l.013-.01c.018-.018.034-.037.049-.057l.003-.004c.049-.067.077-.147.082-.23h.003v-.891zm-20.022-.469c.067.765.68 1.739 1.74 1.739h.62c.24 0 .437-.197.437-.438v-13.645h-.002c-.013-.23-.205-.413-.435-.414h-1.923c-.23.001-.422.184-.435.414h-.002v1.109c-1.178-1.452-3.035-2.055-4.898-2.055-4.205.002-7.664 3.462-7.664 7.667v.003c0 4.237 3.431 7.672 7.664 7.672 1.863 0 3.892-.723 4.898-2.054zm-4.89-.633c-2.692 0-4.875-2.232-4.875-4.986s2.183-4.986 4.875-4.986 4.874 2.232 4.874 4.986-2.182 4.986-4.874 4.986zm-19.041-1.322c1.283.89 2.684 1.322 4.03 1.322 1.283 0 2.609-.665 2.609-1.823 0-1.546-2.89-1.787-4.705-2.405-1.815-.617-3.379-1.893-3.379-3.96 0-3.163 2.816-4.47 5.444-4.47 1.665 0 3.383.55 4.497 1.338.384.29.15.625.15.625l-1.063 1.52c-.12.17-.328.318-.628.133s-1.352-.93-2.956-.93c-1.603 0-2.57.74-2.57 1.66 0 1.1 1.256 1.447 2.727 1.823 2.562.691 5.357 1.522 5.357 4.666 0 2.786-2.604 4.508-5.483 4.508-2.181 0-4.038-.622-5.596-1.766-.324-.325-.098-.627-.098-.627l1.058-1.512c.216-.282.487-.184.606-.102zm-7.391 1.955c.068.765.68 1.739 1.74 1.739h.62c.24-.001.437-.198.438-.438v-13.645h-.003c-.012-.23-.204-.413-.435-.414h-1.922c-.23.001-.422.184-.435.414h-.003v1.109c-1.178-1.452-3.035-2.055-4.897-2.055-4.206.002-7.666 3.464-7.665 7.67 0 4.237 3.432 7.672 7.665 7.672 1.862 0 3.892-.723 4.897-2.054zm-4.89-.633c-2.692 0-4.874-2.232-4.874-4.986s2.182-4.986 4.875-4.986c2.692 0 4.874 2.232 4.874 4.986s-2.182 4.986-4.874 4.986z" fill="#690031"/><path d="m18.559 11.605c-2.83 0-5.158 2.329-5.158 5.159 0 2.829 2.328 5.158 5.158 5.158s5.159-2.329 5.159-5.158c0-2.83-2.329-5.159-5.159-5.159zm-13.401.001c-.024 0-.048-.001-.072-.001-2.829 0-5.158 2.329-5.158 5.159 0 2.829 2.329 5.158 5.158 5.158.024 0 .048-.001.072-.001 2.802-.039 5.086-2.355 5.086-5.157 0-2.803-2.284-5.119-5.086-5.158zm11.858-6.448c0 2.83-2.328 5.158-5.158 5.158s-5.158-2.328-5.158-5.158 2.328-5.158 5.158-5.158 5.158 2.328 5.158 5.158z" fill="#ff584a"/></g></svg>